<svg width="24" height="24" viewBox="0 0 24 24" fill="none" xmlns="http://www.w3.org/2000/svg">
<path fill-rule="evenodd" clip-rule="evenodd" d="M16.9701 6.97001C17.1107 6.82956 17.3013 6.75067 17.5001 6.75067C17.6988 6.75067 17.8895 6.82956 18.0301 6.97001L18.0321 6.97201L18.0351 6.97401L18.0421 6.98101L18.0621 7.00101L18.1241 7.07001C18.1741 7.12701 18.2441 7.20801 18.3251 7.31101C19.2491 8.51198 19.7501 9.98474 19.7501 11.5C19.7501 13.0153 19.2491 14.488 18.3251 15.689C18.2413 15.7959 18.1533 15.8993 18.0611 15.999L18.0411 16.019L18.0351 16.026L18.0321 16.028L18.0311 16.029L17.5211 15.521L18.0311 16.031C17.8904 16.1717 17.6996 16.2508 17.5006 16.2508C17.3016 16.2508 17.1108 16.1717 16.9701 16.031C16.8294 15.8903 16.7504 15.6995 16.7504 15.5005C16.7504 15.3015 16.8294 15.1107 16.9701 14.97L16.9691 14.971L16.9671 14.972L16.9721 14.967L17.0051 14.931C17.0371 14.8963 17.0834 14.8407 17.1441 14.764C17.7767 13.9381 18.1558 12.9463 18.2354 11.909C18.3149 10.8717 18.0914 9.83367 17.5921 8.92101C17.4617 8.68082 17.3119 8.45172 17.1441 8.23601C17.0898 8.16583 17.0324 8.0981 16.9721 8.03301L16.9671 8.02801C16.8276 7.88707 16.7497 7.69665 16.7502 7.49839C16.7508 7.30013 16.8299 7.11016 16.9701 6.97001Z" fill="white"/>
<path fill-rule="evenodd" clip-rule="evenodd" d="M19.97 3.96998C20.1106 3.82953 20.3012 3.75064 20.5 3.75064C20.6988 3.75064 20.8894 3.82953 21.03 3.96998L21.033 3.97198L21.036 3.97498L21.045 3.98498C21.0884 4.02774 21.1297 4.07245 21.169 4.11898C21.248 4.20798 21.357 4.33698 21.485 4.50398C21.742 4.83698 22.079 5.32698 22.414 5.96398C23.084 7.23798 23.75 9.10698 23.75 11.5C23.75 13.893 23.084 15.762 22.414 17.037C22.1471 17.5496 21.8363 18.0381 21.485 18.497C21.3468 18.6767 21.2 18.8495 21.045 19.015L21.035 19.025L21.033 19.028L21.031 19.029L20.5 18.5L21.03 19.03C20.8886 19.1667 20.6992 19.2424 20.5025 19.2407C20.3059 19.2391 20.1178 19.1603 19.9786 19.0213C19.8395 18.8824 19.7605 18.6943 19.7587 18.4976C19.7569 18.301 19.8324 18.1115 19.969 17.97L19.983 17.956L20.046 17.886C20.1053 17.8207 20.1887 17.7193 20.296 17.582C20.508 17.306 20.796 16.889 21.086 16.338C21.666 15.238 22.25 13.607 22.25 11.5C22.25 9.39298 21.666 7.76198 21.086 6.66198C20.8583 6.22572 20.594 5.80956 20.296 5.41798C20.1968 5.28913 20.0924 5.16436 19.983 5.04398L19.969 5.02998C19.8286 4.88936 19.7497 4.69873 19.7497 4.49998C19.7497 4.30123 19.8295 4.11061 19.97 3.96998ZM12.037 3.39598C13.2 2.62898 14.75 3.46398 14.75 4.85698V19.143C14.75 20.537 13.2 21.371 12.037 20.604L6.037 16.649C5.99641 16.6219 5.94879 16.6073 5.9 16.607H3C2.27065 16.607 1.57118 16.3173 1.05546 15.8015C0.539731 15.2858 0.25 14.5863 0.25 13.857V10.143C0.25 9.78185 0.321131 9.42425 0.459331 9.0906C0.597532 8.75696 0.800095 8.4538 1.05546 8.19844C1.31082 7.94308 1.61398 7.74051 1.94762 7.60231C2.28127 7.46411 2.63886 7.39298 3 7.39298H5.9C5.94903 7.39314 5.99701 7.37889 6.038 7.35198L12.037 3.39598Z" fill="white"/>
</svg>
