<svg width="14" height="12" viewBox="0 0 14 12" fill="none" xmlns="http://www.w3.org/2000/svg">
<path d="M4.05417 4.27916C3.85 4.27916 3.70669 4.23774 3.62425 4.15491C3.54181 4.07207 3.50039 3.92877 3.5 3.72499C3.5 3.3361 3.59236 2.97638 3.77708 2.64582C3.96181 2.31527 4.20972 2.04305 4.52083 1.82916L7 0.166656L9.47917 1.82916C9.79028 2.04305 10.0382 2.31527 10.2229 2.64582C10.4076 2.97638 10.5 3.3361 10.5 3.72499C10.5 3.92916 10.4586 4.07266 10.3758 4.15549C10.2929 4.23832 10.1496 4.27955 9.94583 4.27916H4.05417ZM0.583333 11.8333V4.67291C0.408333 4.56596 0.267361 4.42752 0.160417 4.25757C0.0534722 4.08763 0 3.89066 0 3.66666C0 3.44266 0.116667 3.17043 0.35 2.84999C0.583333 2.52955 0.855556 2.21843 1.16667 1.91666C1.47778 2.21805 1.75 2.52916 1.98333 2.84999C2.21667 3.17082 2.33333 3.44305 2.33333 3.66666C2.33333 3.89027 2.27986 4.08724 2.17292 4.25757C2.06597 4.42791 1.925 4.56616 1.75 4.67232V7.16666H2.91667V5.99999C2.91667 5.75693 2.99444 5.5236 3.15 5.29999C3.30556 5.07638 3.52917 4.93055 3.82083 4.86249H10.1792C10.4708 4.93055 10.6944 5.07638 10.85 5.29999C11.0056 5.5236 11.0833 5.75693 11.0833 5.99999V7.16666H12.25V4.67291C12.075 4.56596 11.934 4.42752 11.8271 4.25757C11.7201 4.08763 11.6667 3.89066 11.6667 3.66666C11.6667 3.44266 11.7833 3.17043 12.0167 2.84999C12.25 2.52955 12.5222 2.21843 12.8333 1.91666C13.1444 2.21805 13.4167 2.52916 13.65 2.84999C13.8833 3.17082 14 3.44305 14 3.66666C14 3.89027 13.9465 4.08724 13.8396 4.25757C13.7326 4.42791 13.5917 4.56635 13.4167 4.67291V11.8333H8.16667V9.49999C8.16667 9.17916 8.05253 8.9046 7.82425 8.67632C7.59597 8.44805 7.32122 8.33371 7 8.33332C6.67878 8.33293 6.40422 8.44727 6.17633 8.67632C5.94844 8.90538 5.83411 9.17993 5.83333 9.49999V11.8333H0.583333Z" fill="#828282"/>
</svg>
