<svg width="20" height="18" viewBox="0 0 20 18" fill="none" xmlns="http://www.w3.org/2000/svg">
<path d="M18 6.49999C18.3729 6.5 18.7324 6.63891 19.0084 6.88961C19.2844 7.1403 19.4572 7.48483 19.493 7.85599L19.5 7.99999V12C19.5 13.1568 19.0545 14.2691 18.2561 15.1061C17.4576 15.9431 16.3675 16.4405 15.212 16.495L15 16.5H6.56L6.54 16.812L6.529 16.952C6.473 17.671 5.78 18.122 5.198 17.817L4.884 17.649L4.516 17.44L4.313 17.321L3.874 17.052C3.56129 16.8545 3.25385 16.6487 2.952 16.435L2.567 16.155L2.244 15.91L2.107 15.803C1.618 15.413 1.637 14.608 2.157 14.197L2.293 14.09L2.613 13.848L2.993 13.573L3.431 13.272C3.66604 13.1151 3.90409 12.9627 4.145 12.815L4.571 12.56L4.946 12.349L5.262 12.179C5.839 11.879 6.469 12.264 6.524 12.935L6.562 13.5H15C15.3729 13.5 15.7324 13.3611 16.0084 13.1104C16.2844 12.8597 16.4572 12.5151 16.493 12.144L16.5 12V7.99999C16.5 7.60216 16.658 7.22063 16.9393 6.93933C17.2206 6.65802 17.6022 6.49999 18 6.49999ZM14.802 0.182986L15.116 0.350986L15.484 0.559986C15.5507 0.59732 15.6183 0.636986 15.687 0.678986L16.126 0.947986C16.4387 1.1455 16.7462 1.35124 17.048 1.56499L17.433 1.84499L17.756 2.08999L17.893 2.19699C18.382 2.58699 18.363 3.39199 17.843 3.80299L17.707 3.90999L17.387 4.15199L17.007 4.42699C16.631 4.69163 16.2468 4.94442 15.855 5.18499L15.429 5.43999L15.054 5.65099L14.738 5.82099C14.161 6.12099 13.531 5.73599 13.477 5.06499L13.437 4.49999H5C4.60218 4.49999 4.22064 4.65802 3.93934 4.93933C3.65804 5.22063 3.5 5.60216 3.5 5.99999V9.99999C3.5 10.3978 3.34196 10.7793 3.06066 11.0606C2.77936 11.342 2.39782 11.5 2 11.5C1.60218 11.5 1.22064 11.342 0.93934 11.0606C0.658035 10.7793 0.5 10.3978 0.5 9.99999V5.99999C0.5 4.80651 0.974106 3.66192 1.81802 2.81801C2.66193 1.97409 3.80653 1.49999 5 1.49999H13.44L13.471 1.04799C13.527 0.328986 14.22 -0.122014 14.802 0.182986Z" fill="white"/>
</svg>
