<svg width="24" height="22" viewBox="0 0 24 22" fill="none" xmlns="http://www.w3.org/2000/svg">
<path d="M18.9281 0.613095C19.4906 0.37872 20.1328 0.50997 20.5641 0.936533L23.5641 3.93653C23.8453 4.21778 24.0047 4.59747 24.0047 4.99591C24.0047 5.39435 23.8453 5.77403 23.5641 6.05528L20.5641 9.05528C20.1328 9.48653 19.4906 9.61309 18.9281 9.37872C18.3656 9.14434 18 8.60528 18 8.00059V6.50059H16.5C16.0266 6.50059 15.5812 6.72091 15.3 7.10059L13.7812 9.12559L11.9062 6.62716L12.9 5.30059C13.7484 4.16622 15.0844 3.5006 16.5 3.5006H18V2.0006C18 1.39591 18.3656 0.84747 18.9281 0.613095ZM7.21875 12.8756L9.09375 15.374L8.1 16.7006C7.25156 17.835 5.91562 18.5006 4.5 18.5006H1.5C0.670312 18.5006 0 17.8303 0 17.0006C0 16.1709 0.670312 15.5006 1.5 15.5006H4.5C4.97344 15.5006 5.41875 15.2803 5.7 14.9006L7.21875 12.8756ZM20.5594 21.06C20.1281 21.4912 19.4859 21.6178 18.9234 21.3834C18.3609 21.149 18 20.6053 18 20.0006V18.5006H16.5C15.0844 18.5006 13.7484 17.835 12.9 16.7006L5.7 7.10059C5.41875 6.72091 4.97344 6.50059 4.5 6.50059H1.5C0.670312 6.50059 0 5.83028 0 5.0006C0 4.17091 0.670312 3.5006 1.5 3.5006H4.5C5.91562 3.5006 7.25156 4.16622 8.1 5.30059L15.3 14.9006C15.5812 15.2803 16.0266 15.5006 16.5 15.5006H18V14.0006C18 13.3959 18.3656 12.8475 18.9281 12.6131C19.4906 12.3787 20.1328 12.51 20.5641 12.9365L23.5641 15.9365C23.8453 16.2178 24.0047 16.5975 24.0047 16.9959C24.0047 17.3943 23.8453 17.774 23.5641 18.0553L20.5641 21.0553L20.5594 21.06Z" fill="white"/>
</svg>
