<svg width="14" height="15" viewBox="0 0 14 15" fill="none" xmlns="http://www.w3.org/2000/svg">
<path d="M3.49998 13.595C3.17915 13.595 2.90459 13.4809 2.67631 13.2526C2.44804 13.0243 2.3337 12.7496 2.33331 12.4284V3.09504C2.33331 2.77421 2.44765 2.49965 2.67631 2.27138C2.90498 2.0431 3.17954 1.92876 3.49998 1.92838H10.5C10.8208 1.92838 11.0956 2.04271 11.3242 2.27138C11.5529 2.50004 11.667 2.7746 11.6666 3.09504V12.4284C11.6666 12.7492 11.5525 13.024 11.3242 13.2526C11.096 13.4813 10.8212 13.5954 10.5 13.595H3.49998ZM6.41665 7.17838L7.87498 6.30338L9.33331 7.17838V3.09504H6.41665V7.17838Z" fill="#828282"/>
</svg>
