<svg width="22" height="22" viewBox="0 0 22 22" fill="none" xmlns="http://www.w3.org/2000/svg">
<path d="M1.5 0.75C1.5 0.551088 1.42098 0.360322 1.28033 0.21967C1.13968 0.0790175 0.948912 0 0.75 0C0.551088 0 0.360322 0.0790175 0.21967 0.21967C0.0790175 0.360322 0 0.551088 0 0.75V21.25C0 21.4489 0.0790175 21.6397 0.21967 21.7803C0.360322 21.921 0.551088 22 0.75 22C0.948912 22 1.13968 21.921 1.28033 21.7803C1.42098 21.6397 1.5 21.4489 1.5 21.25V0.75ZM22 2.254C22 0.438 19.959 -0.63 18.467 0.406L5.963 9.086C5.6656 9.29237 5.42239 9.56744 5.254 9.88787C5.08561 10.2083 4.99701 10.5646 4.99574 10.9266C4.99446 11.2886 5.08054 11.6455 5.24667 11.9671C5.4128 12.2888 5.65407 12.5655 5.95 12.774L18.454 21.584C19.944 22.634 22 21.569 22 19.745V2.254Z" fill="white"/>
</svg>
