<svg width="20" height="20" viewBox="0 0 20 20" fill="none" xmlns="http://www.w3.org/2000/svg">
<path d="M10.1 16.3117L10 16.4117L9.89 16.3117C5.14 12.0017 2 9.15172 2 6.26172C2 4.26172 3.5 2.76172 5.5 2.76172C7.04 2.76172 8.54 3.76172 9.07 5.12172H10.93C11.46 3.76172 12.96 2.76172 14.5 2.76172C16.5 2.76172 18 4.26172 18 6.26172C18 9.15172 14.86 12.0017 10.1 16.3117ZM14.5 0.761719C12.76 0.761719 11.09 1.57172 10 2.84172C8.91 1.57172 7.24 0.761719 5.5 0.761719C2.42 0.761719 0 3.17172 0 6.26172C0 10.0317 3.4 13.1217 8.55 17.7917L10 19.1117L11.45 17.7917C16.6 13.1217 20 10.0317 20 6.26172C20 3.17172 17.58 0.761719 14.5 0.761719Z" fill="#909090"/>
</svg>
