<svg width="64" height="64" viewBox="0 0 64 64" fill="none" xmlns="http://www.w3.org/2000/svg">
<path d="M28.2089 14.7474C26.1555 15.5201 24.1268 16.2836 22.1213 17.037C22.0243 17.2371 21.955 17.4218 21.9151 17.5934C25.6575 16.1114 29.1415 14.7671 32.3647 13.5598C32.4089 13.5191 32.4686 13.4128 32.5405 13.2375C32.565 13.1812 32.5683 13.1472 32.5527 13.1343C32.5405 13.1255 32.5025 13.1343 32.4367 13.1567C31.0343 13.6841 29.6433 14.2075 28.2635 14.7268L28.2089 14.7474Z" fill="white"/>
<path d="M27.7134 14.0683C27.7727 13.9423 27.8926 13.8234 28.0728 13.7108C28.2588 13.5925 28.4635 13.5133 28.6881 13.4734C28.777 13.4587 28.8282 13.4527 28.8406 13.4586C28.841 13.4587 28.8413 13.4589 28.8415 13.4591C28.8419 13.4595 28.8426 13.4605 28.8425 13.4611C28.8425 13.4614 28.8423 13.4617 28.8422 13.4621C28.842 13.4626 28.8417 13.4632 28.8414 13.4639C28.8369 13.4734 28.7922 13.4975 28.7055 13.5321C28.2863 13.7043 28.0519 13.8396 28.0035 13.9425C27.9584 14.0382 27.981 14.1075 28.0701 14.1495C28.1194 14.1727 28.171 14.1804 28.2236 14.1713C28.2614 14.1659 28.2858 14.164 28.2939 14.1646C28.2968 14.1724 28.301 14.1781 28.3077 14.1845C28.3006 14.1927 28.2829 14.2164 28.2562 14.2554C28.1129 14.4424 27.9612 14.4979 27.7968 14.4205C27.6613 14.3567 27.6327 14.2394 27.7134 14.0683Z" fill="white"/>
<path fill-rule="evenodd" clip-rule="evenodd" d="M35.1508 30.1611C35.6915 30.1611 36.2169 29.9513 36.7268 29.5323C36.8739 29.4077 36.949 28.957 36.949 28.1752C36.949 27.7003 36.8273 25.7929 36.5825 22.4499C36.339 19.1074 36.2202 17.1374 36.2202 16.5366C36.2202 15.9925 36.1331 15.5485 35.9638 15.1949C35.9638 15.0044 36.1197 14.5353 36.4387 13.7882C36.4733 13.6973 36.5045 13.6531 36.5392 13.6531C36.5738 13.6531 36.6138 13.7035 36.658 13.804C36.7489 13.9975 36.9582 14.5295 37.2863 15.3988C37.6244 16.3052 37.8308 16.8589 37.8963 17.0619C37.9305 17.2341 37.9496 17.3529 37.9496 17.418C37.9496 17.6686 37.712 17.5222 37.2363 16.9777C37.1804 16.8997 37.1521 16.9335 37.1521 17.0811C37.1521 17.1149 37.2588 18.6004 37.4743 21.5427C37.687 24.4824 37.7962 26.2365 37.7962 26.8023C37.7962 28.4412 37.5023 29.7329 36.9148 30.6705C36.4166 31.4581 35.8316 31.855 35.1604 31.8588V31.8667C34.9256 31.9005 34.6913 31.9017 34.457 31.8667V31.8588C34.2346 31.8584 34.0136 31.8331 33.794 31.7827C33.847 32.5066 33.9076 33.3331 33.9761 34.2621C34.2827 38.4204 34.4354 40.7128 34.4354 41.1411C34.4354 42.4548 34.2325 43.6145 33.826 44.6216C33.7412 44.8252 33.6727 44.9716 33.6224 45.0626C33.5418 45.1909 33.4942 45.2065 33.4785 45.1122C33.4542 45.0157 33.4631 44.8028 33.5037 44.4743C33.5539 44.021 33.5789 43.4957 33.5789 42.8951C33.5789 42.3604 33.4134 39.7655 33.0816 35.1089C32.9791 33.6697 32.8928 32.4302 32.8224 31.3908C32.5875 31.2545 32.3541 31.0884 32.1222 30.8923C31.4856 30.2955 30.8469 29.7014 30.2059 29.1051L29.9929 28.9069C29.902 28.829 29.8458 28.7881 29.8237 28.7881C29.7953 28.7881 29.817 28.8727 29.8925 29.0412C30.1522 29.6416 30.2798 30.0697 30.2798 30.3236C30.2798 31.2805 30.005 32.0026 29.4513 32.4938C29.0544 32.8503 28.1601 33.3251 26.7621 33.9134C25.9045 34.2803 25.2616 34.5676 24.8372 34.7686C23.99 35.163 23.405 35.4853 23.089 35.735C22.5074 36.1882 21.6635 37.055 20.5532 38.3308C19.8937 39.0934 19.2274 39.4782 18.5617 39.4782C18.3685 39.4782 18.1839 39.4481 18.0078 39.388C17.9616 39.586 17.916 39.784 17.8716 39.9821C17.7589 40.5046 17.7026 40.8894 17.7026 41.1363C17.7026 41.9962 17.9903 42.7873 18.5658 43.5095C19.3476 44.4729 20.4768 44.9541 21.9588 44.9541C23.2563 44.9541 24.6351 44.648 26.0956 44.0381C27.2715 43.5501 28.3281 42.9407 29.2665 42.2059C30.1134 41.5489 30.539 41.08 30.539 40.7984C30.539 40.7516 30.3639 40.3858 30.0137 39.6951C29.5943 38.8814 29.2822 38.0875 29.0786 37.3179C29.0006 37.0587 28.9069 36.8836 28.8004 36.7927C28.6939 36.7024 28.641 36.6081 28.641 36.5049C28.641 36.4269 28.719 36.0082 28.8757 35.2515C28.9002 35.1137 28.9347 35.048 28.9789 35.048C29.0258 35.048 29.082 35.0791 29.1479 35.1478C29.3629 35.3859 29.8257 35.8548 30.539 36.5551C30.6516 36.6711 30.7079 36.7614 30.7079 36.8273C30.7079 36.9086 30.6421 36.9459 30.5043 36.9459C30.3579 36.9459 30.1386 36.9025 29.8448 36.8117C29.8666 36.9025 30.1047 37.3993 30.5547 38.3032C30.9176 39.0381 31.0988 39.6727 31.0988 40.2046C31.0988 41.2551 30.8613 42.0525 30.3856 42.5967C30.0537 42.983 29.6526 43.3642 29.1826 43.74C29.148 43.9714 28.9651 44.5339 28.6287 45.4336C28.2568 46.4372 28.0725 47.231 28.0725 47.8126C28.0725 48.2596 28.1755 48.616 28.3852 48.882C28.6045 49.1697 28.9139 49.3169 29.3075 49.3169C30.005 49.3169 30.7088 48.96 31.4213 48.2537C31.6599 47.9685 31.8995 47.6842 32.1389 47.4L32.1406 47.398C32.3525 47.1466 32.5644 46.8951 32.7755 46.6431C33.3634 45.9802 34.1356 45.3894 35.0924 44.8699C35.6523 44.5635 36.6246 44.1194 38.0072 43.5378V43.5428L38.013 43.5378L39.3922 42.9529C39.1954 42.4121 39.0983 41.8593 39.0983 41.2993C39.0983 40.4517 39.2234 39.7696 39.4735 39.2539C39.7266 38.741 40.0585 38.485 40.4712 38.485C40.8369 38.485 41.1808 38.7886 41.5031 39.4015C41.7904 39.9422 41.9376 40.4363 41.9376 40.8774C41.9376 41.996 41.609 42.9158 40.9528 43.6316C41.4185 44.1136 41.9751 44.3546 42.6255 44.3546L42.6284 44.3567V44.3546C43.1696 44.3546 43.6949 44.1449 44.2048 43.7259C44.3512 43.6004 44.4266 43.1505 44.4266 42.3688C44.4266 41.893 44.1736 38.1661 43.6699 31.1896C43.1667 24.2102 42.9161 20.4261 42.9161 19.8386C42.9161 19.2946 42.8198 18.8472 42.6284 18.497C42.6284 18.2943 42.7877 17.8245 43.11 17.0902C43.1446 16.9994 43.1788 16.9552 43.2134 16.9552C43.248 16.9552 43.2884 16.9994 43.3355 17.0902C43.4256 17.2933 43.6386 17.8245 43.9734 18.685C44.3203 19.5881 44.5263 20.148 44.5955 20.364C44.6301 20.5232 44.6484 20.6421 44.6484 20.72C44.6484 20.9677 44.4075 20.8172 43.9326 20.2606C43.8763 20.1826 43.8484 20.2172 43.8484 20.364C43.8484 20.3986 44.086 23.704 44.5609 30.2794C45.0366 36.8586 45.2743 40.43 45.2743 40.9962C45.2743 42.6339 44.9803 43.9256 44.392 44.8641C43.8917 45.6554 43.3043 46.0523 42.6284 46.0523V46.0494L42.6255 46.0523C41.9972 46.0523 41.356 45.7767 40.6993 45.2264C40.3491 44.9325 40.0739 44.6168 39.8767 44.2762L38.013 45.0667L38.0072 45.0638C37.1379 45.4357 36.487 45.7271 36.0589 45.9302C35.2112 46.3246 34.6271 46.646 34.3107 46.8962C33.729 47.3498 32.8848 48.2162 31.7749 49.492C31.1153 50.2546 30.4491 50.6394 29.7832 50.6394C29.2233 50.6394 28.7355 50.3863 28.3164 49.8831C27.8758 49.3578 27.6565 48.7165 27.6565 47.9565C27.6565 46.9306 28.07 45.597 28.8998 43.9593C28.3753 44.3537 27.7741 44.7418 27.0964 45.1232C25.2635 46.1424 23.5561 46.6519 21.9744 46.6519C19.8477 46.6519 18.3846 45.611 17.5812 43.5284C17.4243 43.1219 17.3463 42.6028 17.3463 41.9682C17.3463 41.5489 17.3776 41.1269 17.446 40.6952C17.531 40.1749 17.6418 39.7057 17.7795 39.2909C17.5335 39.1646 17.3053 38.9747 17.0944 38.7215C16.654 38.1961 16.4348 37.5549 16.4348 36.7948C16.4348 35.9527 16.7132 34.9035 17.2721 33.6485L17.0509 33.8307C16.4062 34.3187 15.8185 34.5622 15.2871 34.5622C14.7274 34.5622 14.2394 34.3091 13.8207 33.8057C13.3797 33.2803 13.1604 32.6391 13.1604 31.8791C13.1604 30.8347 13.5893 29.4713 14.4491 27.7925C14.5394 27.6174 14.6086 27.53 14.6581 27.53C14.6833 27.5326 14.6926 27.5578 14.6926 27.5957C14.6926 27.7675 14.5081 28.3524 14.1329 29.356C13.761 30.3597 13.5765 31.1536 13.5765 31.736C13.5765 32.1763 13.6795 32.5332 13.8892 32.8047C14.1145 33.0924 14.4241 33.2397 14.8115 33.2397C15.4527 33.2397 16.0532 33.03 16.6192 32.6113C17.3134 32.0108 18.0104 31.4102 18.7046 30.813C19.8899 29.8079 21.0722 29.0265 22.2492 28.4716C22.0973 27.8686 21.983 27.2613 21.9064 26.6487C21.8847 26.4831 21.8691 26.3825 21.8562 26.3419C21.8224 26.217 21.7504 26.0827 21.6377 25.9354L22.0192 25.0098C22.0788 24.8564 22.1352 24.7819 22.1787 24.7819C22.2193 24.7819 22.2851 24.8564 22.3821 25.0098L23.3573 26.5707C23.489 26.7797 23.5514 26.9329 23.5514 27.03C23.5514 27.0986 23.5201 27.1332 23.4517 27.1332C23.3322 27.1332 23.1199 27.0335 22.8138 26.8359C22.8664 27.1951 22.9586 27.6132 23.0911 28.0888L23.2416 28.0206C23.908 27.7892 24.4801 27.6738 24.9557 27.6738C25.4342 27.6738 25.8157 27.874 26.0938 28.2805C26.3754 28.6835 26.5159 29.2182 26.5159 29.8778C26.5159 30.4282 26.3971 30.8821 26.1596 31.2384C25.9214 31.5947 25.606 31.7731 25.2184 31.7731C24.6802 31.7731 24.1611 31.5106 23.6577 30.9914C23.2824 30.6005 23.0041 30.1812 22.8169 29.734C21.8974 30.1004 20.8401 30.7539 19.6553 31.6918C19.027 32.2052 18.4023 32.7183 17.7786 33.2315C17.6879 33.5053 17.5643 33.8519 17.4073 34.272C17.0354 35.2755 16.8509 36.0694 16.8509 36.651C16.8509 37.0984 16.9541 37.4552 17.1637 37.7204C17.3823 38.0081 17.6924 38.1557 18.0859 38.1557C18.7835 38.1557 19.4872 37.7992 20.1997 37.0921C20.4031 36.8495 20.6071 36.6074 20.811 36.3653L20.8119 36.3643C21.0594 36.0704 21.307 35.7766 21.5535 35.4819C22.1417 34.819 22.9143 34.2278 23.8707 33.7087C24.4277 33.4044 25.3921 32.9632 26.7621 32.3862V32.3837C28.2381 31.7591 29.2078 31.2738 29.6706 30.9332C29.8049 30.8336 29.8516 30.6989 29.8049 30.5267C29.5577 29.6228 28.5387 28.4187 26.7463 26.9152C25.095 25.5826 23.4434 24.2536 21.7919 22.9246L21.78 22.915L21.7792 22.9144L21.6061 22.7751C21.5464 22.7247 21.5151 22.5375 21.5151 22.2152C21.5151 21.7966 21.5592 21.3651 21.6497 20.9177C21.7465 20.4203 21.8653 20.1047 22.0062 19.9767C22.9727 19.1036 25.036 17.9466 28.1943 16.5053C31.3934 15.0415 33.5072 14.3102 34.53 14.3102C34.8331 14.3102 35.0424 14.3698 35.1549 14.4911C35.2709 14.6133 35.3271 14.8197 35.3271 15.1136C35.3271 15.7861 34.9235 16.6241 34.1235 17.6252C33.9755 17.7928 33.827 17.9605 33.6781 18.1285L33.6731 18.1341L33.6725 18.1348C33.5207 18.3061 33.3685 18.4779 33.2162 18.6504C32.7351 19.2104 32.4095 19.6669 32.241 20.0171C32.1284 20.2548 32.0563 20.3736 32.028 20.3736C32 20.3736 32.0159 20.2139 32.0784 19.8983C32.1126 19.7232 32.2469 19.4201 32.4787 18.9911C32.6884 18.5941 32.8443 18.3377 32.9506 18.2189C33.8575 17.1899 34.3982 16.5116 34.5796 16.1893C34.5988 16.158 34.6046 16.1242 34.6046 16.0896C34.6046 15.8953 34.3515 15.8015 33.842 15.8015C33.0353 15.8015 31.1211 16.5053 28.1009 17.9129C25.0832 19.3196 23.016 20.4766 21.9032 21.383C21.8311 21.4464 21.8403 21.4993 21.9374 21.5427C22.9251 22.1493 23.8982 22.7751 24.8551 23.4189C27.1565 24.9798 29.192 26.5183 30.9681 28.0347C31.506 28.5037 32.0409 28.9761 32.5783 29.451C32.619 29.4813 32.6597 29.5106 32.7003 29.539C32.6249 28.3533 32.5875 27.6478 32.5875 27.4232C32.5875 26.8761 32.5034 26.4257 32.3344 26.0754C32.3344 25.8536 32.4906 25.3846 32.8067 24.668C32.8754 24.5085 32.9506 24.512 33.0288 24.6747C33.1196 24.8683 33.3286 25.4002 33.6536 26.2695C34.0011 27.1761 34.2014 27.7326 34.2577 27.9423C34.3011 28.1017 34.3261 28.2206 34.3261 28.2986C34.3261 28.5489 34.0853 28.399 33.6041 27.8486C33.5478 27.7699 33.5193 27.8045 33.5193 27.9518C33.5193 27.98 33.5682 28.6743 33.6667 30.0338C33.9299 30.1187 34.1911 30.1612 34.4499 30.1611V30.1577C34.6905 30.2007 34.924 30.2015 35.1508 30.1611ZM25.2931 30.0754C25.5123 30.0754 25.6249 30.0156 25.6249 29.8969C25.6249 29.7218 25.4682 29.5684 25.156 29.4375C24.9246 29.3431 24.5494 29.3403 24.0301 29.4307C24.305 29.8596 24.7271 30.0754 25.2931 30.0754ZM41.5061 41.6054C41.5061 41.4182 41.3593 41.1305 41.0716 40.7394C40.7556 40.32 40.4804 40.1136 40.249 40.1136C40.0739 40.1136 39.9017 40.2203 39.7328 40.4363C39.5644 40.6485 39.4798 40.852 39.4798 41.0454C39.4798 41.2084 39.5707 41.4961 39.7579 41.9026C39.9175 42.2587 40.0397 42.4997 40.1302 42.6218C40.3678 42.5093 40.6401 42.35 40.9461 42.1403C41.3184 41.8905 41.5061 41.7121 41.5061 41.6054Z" fill="white"/>
<path d="M39.1452 16.2468C39.314 16.5971 39.3983 17.0468 39.3983 17.5946C39.3983 18.0634 39.5611 20.6272 39.8922 25.2803C40.224 29.9362 40.3897 32.5318 40.3897 33.0665C40.3897 33.6671 40.3645 34.1924 40.315 34.6457C40.2744 34.9742 40.2648 35.1864 40.2898 35.2836C40.3055 35.3772 40.3524 35.3616 40.4337 35.2333C40.4834 35.143 40.5525 34.9959 40.6366 34.793C41.0431 33.7859 41.2467 32.6254 41.2467 31.3125C41.2467 30.8842 41.0933 28.5918 40.7867 24.4328C40.4806 20.277 40.3307 18.1727 40.3307 18.1225C40.3307 17.9759 40.3585 17.9413 40.4147 18.0193C40.8966 18.5697 41.1367 18.7203 41.1367 18.47C41.1367 18.392 41.1124 18.2731 41.0683 18.1137C41.012 17.904 40.8117 17.3475 40.4649 16.4402C40.1392 15.5709 39.9302 15.0397 39.8394 14.8458C39.7612 14.6834 39.686 14.6799 39.6174 14.8394C39.3019 15.5554 39.1452 16.0243 39.1452 16.2468Z" fill="white"/>
<path d="M21.6624 34.0757V33.0876C21.8123 33.1406 22.1061 33.1968 22.5378 33.2566C22.9693 33.3164 23.2068 33.3346 23.2537 33.3129C23.2883 33.2973 23.3074 33.2505 23.3074 33.1724V31.9367C23.3074 31.8804 23.2917 31.8491 23.2633 31.8465C22.7318 31.79 22.2067 31.7088 21.6841 31.6056C21.6216 31.5934 21.587 31.6306 21.5809 31.7209C21.5531 32.0121 21.5464 32.3527 21.5592 32.7436C21.0056 32.675 20.4992 32.597 20.0426 32.5122C19.9801 32.5027 19.9455 32.5407 19.9394 32.6283C19.8641 33.3407 19.8701 33.7852 19.9551 33.9569C19.9768 34.0038 20.2455 34.0634 20.7618 34.1415C21.2741 34.2168 21.5592 34.2413 21.6087 34.2168C21.6433 34.1978 21.6624 34.1537 21.6624 34.0757Z" fill="white"/>
<path d="M25.6237 42.1967C25.8611 41.8275 25.9798 41.499 25.9798 41.2114C25.9798 40.8205 25.8238 40.6271 25.5144 40.6271C25.139 40.6271 24.9043 40.8646 24.8011 41.3396C24.7855 41.4367 24.7733 41.4963 24.7672 41.518C24.7855 41.5242 24.7983 41.5303 24.8106 41.5432C24.8263 41.5364 24.8702 41.5119 24.9354 41.4678C25.0264 41.4054 25.1296 41.3741 25.2422 41.3741C25.4451 41.3741 25.549 41.4834 25.549 41.7026C25.549 41.9368 25.23 42.3968 24.5982 43.0877C24.4665 43.2281 24.4041 43.313 24.4041 43.3347C24.4041 43.3408 24.4041 43.3441 24.4102 43.3441C24.4387 43.3441 24.529 43.2878 24.6823 43.1814C25.0671 42.9091 25.3799 42.5815 25.6237 42.1967Z" fill="white"/>
<path d="M30.7774 19.3813C31.0149 19.0122 31.1335 18.6837 31.1335 18.396C31.1335 18.0051 30.9775 17.8118 30.6681 17.8118C30.2927 17.8118 30.058 18.0492 29.9548 18.5242C29.9392 18.6213 29.927 18.6809 29.9209 18.7026C29.9392 18.7089 29.952 18.7149 29.9644 18.7278C29.98 18.721 30.024 18.6965 30.0891 18.6524C30.1801 18.59 30.2833 18.5588 30.3959 18.5588C30.5988 18.5588 30.7027 18.668 30.7027 18.8873C30.7027 19.1215 30.3837 19.5815 29.7519 20.2724C29.6202 20.4127 29.5579 20.4977 29.5579 20.5194C29.5579 20.5255 29.5579 20.5288 29.5639 20.5288C29.5924 20.5288 29.6828 20.4725 29.836 20.366C30.2208 20.0938 30.5337 19.7661 30.7774 19.3813Z" fill="white"/>
<path d="M30.3287 45.7904C30.2621 46.2242 30.2874 46.5726 30.4045 46.8354C30.5636 47.1924 30.7848 47.3055 31.0674 47.1795C31.4103 47.0267 31.528 46.7143 31.4289 46.2384C31.4037 46.1434 31.3905 46.084 31.3873 46.0617C31.368 46.0634 31.3538 46.0631 31.3373 46.0563C31.3258 46.0689 31.2956 46.1092 31.2541 46.176C31.1963 46.27 31.1148 46.3406 31.012 46.3864C30.8267 46.469 30.6873 46.4115 30.598 46.2112C30.5027 45.9973 30.6068 45.4473 30.9026 44.5591C30.9658 44.3773 30.9882 44.2743 30.9793 44.2544C30.9768 44.2489 30.9755 44.2459 30.9699 44.2484C30.9439 44.2599 30.8843 44.3481 30.7877 44.5078C30.5471 44.9131 30.3947 45.3397 30.3287 45.7904Z" fill="white"/>
<path d="M34.6572 20.8289C34.8946 20.4598 35.0133 20.1313 35.0133 19.8436C35.0133 19.4527 34.8573 19.2594 34.5479 19.2594C34.1725 19.2594 33.9378 19.4969 33.8346 19.9718C33.8189 20.0689 33.8068 20.1285 33.8007 20.1502C33.8189 20.1565 33.8318 20.1626 33.8441 20.1754C33.8598 20.1686 33.9037 20.1441 33.9689 20.1C34.0599 20.0376 34.1631 20.0064 34.2757 20.0064C34.4786 20.0064 34.5825 20.1156 34.5825 20.3349C34.5825 20.5691 34.2635 21.0291 33.6317 21.72C33.5 21.8603 33.4376 21.9453 33.4376 21.967C33.4376 21.9731 33.4376 21.9764 33.4437 21.9764C33.4722 21.9764 33.5625 21.9201 33.7158 21.8136C34.1006 21.5414 34.4134 21.2137 34.6572 20.8289Z" fill="white"/>
<path d="M14.4933 25.1085C14.4401 25.3446 14.4408 25.5371 14.4952 25.6861C14.5691 25.8885 14.6865 25.9591 14.8467 25.9006C15.0411 25.8296 15.1177 25.6622 15.0813 25.3968C15.0711 25.3435 15.0661 25.3104 15.0651 25.298C15.0545 25.2982 15.0467 25.2975 15.0379 25.2932C15.0311 25.2996 15.0129 25.3206 14.9876 25.3558C14.9522 25.4053 14.9047 25.441 14.8464 25.4623C14.7413 25.5007 14.6669 25.4637 14.6254 25.3502C14.5811 25.2289 14.6593 24.9304 14.8558 24.4532C14.8975 24.3556 14.9137 24.2998 14.9096 24.2886C14.9084 24.2854 14.9078 24.2837 14.9047 24.2849C14.8899 24.2903 14.8538 24.3365 14.7946 24.4206C14.6468 24.6343 14.5468 24.8632 14.4933 25.1085Z" fill="white"/>
<path d="M16.822 27.26C17.0057 26.9752 17.0973 26.7218 17.0973 26.4998C17.0973 26.1983 16.9764 26.0491 16.7377 26.0491C16.4482 26.0491 16.2676 26.2323 16.1874 26.5987C16.1754 26.6736 16.166 26.7197 16.1613 26.7365C16.1754 26.7412 16.1854 26.7459 16.1948 26.7558C16.2069 26.7506 16.2409 26.7317 16.2917 26.6976C16.3612 26.6495 16.4408 26.6254 16.5277 26.6254C16.6848 26.6254 16.7644 26.7097 16.7644 26.8788C16.7644 27.0595 16.5183 27.4143 16.0309 27.9473C15.9293 28.0556 15.8812 28.1211 15.8812 28.1379C15.8812 28.1426 15.8812 28.1451 15.8859 28.1451C15.9079 28.1451 15.9781 28.1017 16.0959 28.0196C16.3926 27.8095 16.634 27.5568 16.822 27.26Z" fill="white"/>
<path d="M22.1259 44.1305C22.0354 44.2172 21.943 44.2603 21.8426 44.2603C21.626 44.2603 21.5174 44.1403 21.5174 43.9023C21.5174 43.6873 21.6178 43.4335 21.8208 43.1382C21.9982 42.8741 22.1652 42.6929 22.323 42.5985C22.3546 42.581 22.3742 42.581 22.3819 42.6023C22.3918 42.628 22.384 42.6557 22.3546 42.689C22.2345 42.7993 22.1123 42.9489 21.9921 43.1382C21.8563 43.3407 21.7892 43.4907 21.7892 43.5869C21.8503 43.536 21.9213 43.5121 22.002 43.5121C22.187 43.5121 22.2797 43.5929 22.2797 43.7583C22.2797 43.9078 22.2284 44.0321 22.1259 44.1305Z" fill="white"/>
<path d="M19.9049 19.4764C20.1425 19.1072 20.2619 18.7794 20.2619 18.4917C20.2619 18.1008 20.1052 17.9068 19.7958 17.9068C19.4204 17.9068 19.1857 18.1443 19.0825 18.6199C19.0668 18.7163 19.0547 18.7761 19.0486 18.7978C19.0668 18.8039 19.0797 18.8107 19.092 18.8228C19.1077 18.8167 19.1516 18.7917 19.2175 18.7483C19.3078 18.6851 19.411 18.654 19.5236 18.654C19.7272 18.654 19.8304 18.7638 19.8304 18.9823C19.8304 19.2172 19.5114 19.6765 18.8796 20.3674C18.7479 20.5084 18.6855 20.5927 18.6855 20.6144C18.6855 20.6212 18.6855 20.6238 18.6916 20.6238C18.7201 20.6238 18.8104 20.5675 18.9637 20.4617C19.3484 20.1895 19.6613 19.8611 19.9049 19.4764Z" fill="white"/>
<path d="M24.5772 15.5398C24.7586 15.4291 24.8797 15.3115 24.9404 15.1862C25.0229 15.0159 24.9955 14.8984 24.8608 14.8331C24.6972 14.7539 24.5449 14.8078 24.3996 14.9932C24.3725 15.0319 24.3545 15.0554 24.3473 15.0636C24.354 15.0701 24.3582 15.0758 24.361 15.0837C24.3691 15.0843 24.3935 15.0827 24.4313 15.0776C24.484 15.0692 24.5355 15.0774 24.5846 15.1011C24.6732 15.1441 24.695 15.2137 24.6489 15.3089C24.5994 15.4112 24.3635 15.544 23.9426 15.7116C23.8554 15.7453 23.8105 15.7689 23.8059 15.7783C23.8045 15.7813 23.8039 15.7824 23.8066 15.7837C23.819 15.7897 23.8702 15.7842 23.9593 15.7705C24.1843 15.7331 24.3899 15.6561 24.5772 15.5398Z" fill="white"/>
<path d="M31.1942 34.4656C31.3043 34.4656 31.4056 34.4183 31.505 34.3231C31.6174 34.2153 31.6737 34.0789 31.6737 33.9149C31.6737 33.7334 31.5719 33.6449 31.369 33.6449C31.2804 33.6449 31.2026 33.671 31.1356 33.7268C31.1356 33.6214 31.2092 33.4568 31.3582 33.2347C31.49 33.027 31.624 32.8629 31.7558 32.742C31.7881 32.7054 31.7966 32.675 31.7858 32.6468C31.7773 32.6234 31.7558 32.6234 31.7211 32.6426C31.5481 32.7462 31.3648 32.945 31.1703 33.2347C30.9476 33.5586 30.8374 33.837 30.8374 34.0728C30.8374 34.3339 30.9566 34.4656 31.1942 34.4656Z" fill="white"/>
<path d="M18.6346 36.8897C18.7351 36.8897 18.8274 36.8462 18.918 36.7599C19.0206 36.6611 19.072 36.5372 19.072 36.3875C19.072 36.2222 18.9792 36.1414 18.7941 36.1414C18.7133 36.1414 18.6424 36.1649 18.5813 36.2162C18.5813 36.1196 18.6483 35.97 18.7843 35.7671C18.9043 35.5781 19.0265 35.4286 19.1467 35.3183C19.1762 35.2845 19.1839 35.2571 19.174 35.2315C19.1664 35.2098 19.1467 35.2098 19.1151 35.2277C18.9574 35.3221 18.7902 35.5033 18.6129 35.7671C18.4099 36.0624 18.3095 36.3166 18.3095 36.5312C18.3095 36.7697 18.418 36.8897 18.6346 36.8897Z" fill="white"/>
<path d="M36.7451 37.7181C36.7558 37.6942 36.769 37.6768 36.7798 37.6637C36.7924 37.6576 36.7971 37.6595 36.7971 37.6703C36.8013 37.681 36.8013 37.7008 36.7971 37.7289C36.6931 38.3031 36.5206 38.5905 36.2829 38.5905C36.0279 38.5905 35.9027 38.3791 35.9027 37.9576C35.9027 37.4373 36.0518 36.8926 36.3518 36.3225C36.4277 36.1819 36.4708 36.1088 36.4882 36.1064C36.4892 36.1064 36.4902 36.107 36.491 36.1078C36.4913 36.1082 36.4919 36.109 36.4921 36.1094L36.4924 36.1107C36.4924 36.1388 36.4708 36.219 36.4277 36.3525C36.2332 36.9469 36.1361 37.3613 36.1361 37.599C36.1361 37.9229 36.2224 38.0874 36.3996 38.0874C36.5008 38.0874 36.6153 37.9642 36.7451 37.7181Z" fill="white"/>
<path d="M15.5189 37.8872C15.5346 37.8466 15.5537 37.8214 15.5691 37.8092C15.5815 37.7997 15.5909 37.8031 15.5943 37.8188C15.6004 37.8344 15.6004 37.8622 15.5943 37.9029C15.5563 38.2253 15.4627 38.513 15.3188 38.7694C15.175 39.0225 15.0188 39.1509 14.8499 39.1509C14.662 39.1535 14.5214 39.0598 14.4245 38.8597C14.3309 38.6629 14.2867 38.3969 14.2996 38.0623C14.3152 37.6558 14.44 37.134 14.6714 36.4961C14.8689 35.952 15.044 35.5705 15.1967 35.3514C15.2936 35.2197 15.3501 35.1511 15.3657 35.1485C15.3718 35.1702 15.3473 35.2448 15.291 35.3764C14.9497 36.1332 14.7372 36.8334 14.6531 37.4713C14.6403 37.5433 14.6375 37.6185 14.6375 37.6904C14.6375 38.2001 14.7624 38.4437 15.0188 38.4219C15.1722 38.403 15.3378 38.2253 15.5189 37.8872Z" fill="white"/>
<path d="M16.1498 21.9227C16.3724 21.9227 16.597 22.1382 16.8221 22.5691C17.0259 22.9644 17.1661 23.405 17.248 23.8918L17.2493 23.9008L17.2514 23.9143L17.2538 23.9295C17.2574 23.9531 17.2597 23.9673 17.2597 23.9736C17.2693 23.9853 17.2738 23.9853 17.2784 23.9736C17.283 23.9645 17.2947 23.9386 17.3114 23.8918C17.3698 23.4725 17.4847 22.9202 17.6534 22.2316C17.8145 21.8475 17.9904 21.6555 18.1799 21.6555C18.2785 21.6555 18.3745 21.7216 18.4726 21.8526C18.5569 21.9669 18.599 22.0584 18.599 22.1311C18.599 22.1875 18.5848 22.2577 18.5549 22.3465C18.5173 22.4659 18.4726 22.5243 18.4212 22.5243C18.3999 22.5243 18.3532 22.4802 18.2831 22.3887C18.2103 22.2972 18.1357 22.253 18.0605 22.253C17.904 22.253 17.7256 22.8008 17.5269 23.8963C17.4634 24.2455 17.3933 24.4915 17.316 24.6342C17.2621 24.7323 17.2154 24.7816 17.1778 24.7816C17.1427 24.7816 17.1265 24.7373 17.1265 24.6485C17.1265 24.5031 17.035 24.1586 16.8546 23.618C16.6677 23.0585 16.5432 22.7794 16.4801 22.7794C16.4334 22.7794 16.4029 22.7937 16.3912 22.8242C16.3769 22.8521 16.3393 22.8684 16.2764 22.8684C16.2036 22.8684 16.1102 22.8146 15.9928 22.7093C15.8759 22.6042 15.8195 22.5173 15.8195 22.4542C15.8195 22.4264 15.8668 22.3302 15.9648 22.1662C16.0634 22.002 16.1239 21.9227 16.1498 21.9227Z" fill="white"/>
<path d="M45.8965 23.1848C45.8965 22.6311 45.8089 22.184 45.6399 21.8459C45.6399 21.618 45.7961 21.1456 46.115 20.4297C46.1809 20.2702 46.2561 20.2735 46.3341 20.4358C46.4251 20.6298 46.6341 21.1613 46.9626 22.0306C47.3066 22.9377 47.5102 23.4969 47.5658 23.7127C47.6099 23.8635 47.6351 23.9821 47.6351 24.0601C47.6351 24.3195 47.3907 24.1694 46.9096 23.6097C46.8534 23.5411 46.8249 23.5784 46.8249 23.7195C46.8249 23.7725 47.0033 26.2398 47.3568 31.121C47.7096 36.0049 47.8882 38.663 47.8882 39.0912C47.8882 40.4205 47.6853 41.5803 47.2849 42.5689C47.2001 42.7753 47.1315 42.9219 47.0785 43.0128C46.9998 43.141 46.9531 43.1566 46.9347 43.063C46.9123 42.9659 46.9218 42.7529 46.9626 42.4251C47.0128 41.9711 47.0406 41.4432 47.0406 40.8392C47.0406 40.3079 46.8499 37.3498 46.4686 31.9712C46.0871 26.59 45.8965 23.6599 45.8965 23.1848Z" fill="white"/>
<path d="M25.0642 38.1411C25.039 38.1255 25.039 38.0909 25.0642 38.0407L25.605 36.9279C25.6396 36.8586 25.6769 36.8275 25.715 36.8275C25.7713 36.8275 26.0148 36.9746 26.4465 37.2685C26.8747 37.5623 27.0905 37.7346 27.0905 37.7841C27.0905 37.9784 26.8998 38.3786 26.5217 38.9915C26.475 39.0695 26.4274 39.0884 26.3779 39.0511C25.9525 38.7254 25.5148 38.4255 25.0642 38.1411Z" fill="white"/>
<path d="M40.0958 36.9216L40.5275 36.0301C40.562 35.9615 40.5994 35.9302 40.64 35.9302C40.6963 35.9302 40.9373 36.0768 41.3681 36.3714C41.797 36.6652 42.0128 36.8368 42.0128 36.887C42.0128 37.0811 41.8222 37.4808 41.4435 38.0909C41.3994 38.1663 41.3499 38.1846 41.2997 38.15C40.9277 37.8752 40.5058 37.584 40.036 37.2779C39.8765 37.6342 39.724 37.9375 39.5706 38.188C39.5265 38.266 39.477 38.285 39.4268 38.2469C39.0012 37.9219 38.5636 37.622 38.1129 37.337C38.0884 37.3213 38.0884 37.2875 38.1129 37.2373L38.6544 36.1237C38.6885 36.0551 38.7263 36.024 38.7637 36.0205C38.8167 36.024 39.0229 36.1426 39.3827 36.3869C39.7457 36.6306 39.9832 36.809 40.0958 36.9216Z" fill="white"/>
<path fill-rule="evenodd" clip-rule="evenodd" d="M38.4965 32.9498C38.0062 32.695 37.7595 32.4281 37.7595 32.1486C37.7595 31.813 37.9176 31.5047 38.225 31.2254C38.5369 30.9461 38.796 30.8416 39.0024 30.918C39.1763 30.9785 39.2615 31.1649 39.2615 31.4766C39.2615 31.7559 39.2044 32.0714 39.0877 32.4202C39.3344 32.5614 39.4927 32.6829 39.5532 32.7802C39.5532 32.9138 39.4434 33.136 39.2212 33.4522C39.1605 33.3548 39.0103 33.2336 38.7715 33.0877C38.4965 33.4681 38.1486 33.8167 37.7278 34.1277C37.25 34.4801 36.8081 34.747 36.4076 34.9254C36.3266 34.9658 35.8611 35.1442 35.0196 35.4561C34.886 35.5042 34.8008 35.5289 34.7561 35.5289C34.7358 35.5289 34.728 35.5211 34.728 35.5123C34.728 35.4797 34.8008 35.4156 34.9468 35.3225C35.5694 34.9535 36.1933 34.5811 36.8204 34.2051C37.5697 33.7517 38.1283 33.3346 38.4965 32.9498ZM38.796 32.2664C38.8444 32.1162 38.8531 31.9624 38.8284 31.8088C38.796 31.6383 38.7186 31.5576 38.5974 31.5576C38.5412 31.5576 38.4605 31.5864 38.3629 31.6383C38.2619 31.6954 38.2093 31.748 38.2093 31.8009C38.2093 31.9221 38.4076 32.0802 38.796 32.2664Z" fill="white"/>
<path fill-rule="evenodd" clip-rule="evenodd" d="M37.8225 40.3627C37.8225 40.74 37.6938 41.1007 37.436 41.4414C37.1616 41.8133 36.837 41.9991 36.4706 41.9991C36.0886 41.9991 35.8971 41.8133 35.8971 41.4414C35.8971 41.1736 36.0473 40.7805 36.3464 40.2698C36.6509 39.7534 36.9096 39.5013 37.1258 39.5013C37.3119 39.5013 37.4776 39.583 37.6164 39.7433C37.7509 39.9091 37.8225 40.1152 37.8225 40.3627ZM37.4922 40.7862C37.4922 40.4398 37.2502 40.2652 36.7754 40.2652C36.708 40.2652 36.595 40.3727 36.4347 40.5901C36.2747 40.8117 36.1973 40.962 36.1973 41.0491C36.2532 41.1736 36.4293 41.2352 36.7338 41.2352C37.2402 41.2352 37.4922 41.085 37.4922 40.7862Z" fill="white"/>
<path d="M35.3112 22.5135C35.5393 22.5135 35.6554 22.6234 35.6554 22.848C35.6554 22.9674 35.6241 23.0923 35.561 23.2205C35.5202 23.3081 35.4172 23.4486 35.2515 23.6487C35.014 23.9209 34.858 24.1115 34.7765 24.2243C34.6422 24.4027 34.5634 24.493 34.5416 24.493C34.539 24.493 34.5356 24.4868 34.5356 24.4807C34.5356 24.459 34.5573 24.3992 34.5981 24.2962C34.6889 24.0709 34.8328 23.8455 35.0392 23.6114C35.1545 23.4832 35.2766 23.3515 35.3988 23.2205C35.352 23.1079 35.2799 23.0516 35.1769 23.0516C35.105 23.0516 35.014 23.0767 34.9108 23.1296C33.8759 23.6548 32.8784 23.9209 31.9183 23.9209C31.3896 23.9209 30.9112 23.8056 30.483 23.5768C30.5455 23.7769 30.5238 24.0146 30.4171 24.2962C30.3765 24.4054 30.3487 24.465 30.3296 24.4678C30.3202 24.4678 30.3141 24.3992 30.3141 24.2649C30.3141 24.0146 30.2733 23.7986 30.1953 23.6175C30.1857 23.5957 30.0548 23.3984 29.8077 23.0325C29.8486 22.7794 29.9109 22.6547 29.9952 22.6547C30.0046 22.6547 30.0671 22.6981 30.1858 22.789C30.327 22.9043 30.4708 22.9987 30.6174 23.0767C31.0524 23.3048 31.5307 23.4208 32.0465 23.4208C32.5907 23.4208 33.1159 23.3426 33.6223 23.1859C33.9194 23.0923 34.2731 22.945 34.6822 22.7448C35.0046 22.5888 35.2143 22.5135 35.3112 22.5135Z" fill="white"/>
<path d="M23.557 39.6978C23.557 39.8043 23.4227 40.0418 23.1566 40.4172C22.8533 40.8366 22.5663 41.146 22.2942 41.34C22.1191 41.4615 21.5403 41.6555 20.5556 41.9156C20.3805 41.959 20.2923 41.9745 20.2923 41.9651C20.3051 41.9467 20.3642 41.8965 20.4742 41.8117C20.6024 41.712 20.9526 41.5152 21.5247 41.2118C22.075 40.9207 22.3973 40.7334 22.4909 40.6519C22.5065 40.633 22.5161 40.6174 22.5161 40.6017C22.5161 40.4707 22.0248 40.4077 21.0495 40.4077C21.0462 40.4077 20.859 40.4145 20.4863 40.4301C20.3086 40.4395 20.2211 40.4266 20.2211 40.3955C20.2211 40.3703 20.2428 40.3201 20.2862 40.2421L20.6336 39.6544C20.7368 39.4821 20.9213 39.3761 21.1901 39.3294C21.2872 39.3138 21.5125 39.307 21.8686 39.307C22.9945 39.307 23.557 39.4352 23.557 39.6978Z" fill="white"/>
<path d="M28.8546 20.4223C28.8546 20.3347 28.7983 20.256 28.6823 20.1909C28.5669 20.125 28.3885 20.0937 28.1475 20.0937C27.5911 20.0937 27.0564 20.256 26.5432 20.5878C26.3275 20.7256 26.2182 20.8538 26.2182 20.9726C26.2182 21.1192 26.3811 21.2848 26.7001 21.4727C27.1968 21.7007 27.5876 21.8669 27.8727 21.9668C28.2853 22.2076 28.4665 22.4233 28.417 22.6169C28.2792 22.5828 27.9229 22.4668 27.3474 22.2666C26.7001 22.0448 26.2997 21.8853 26.1402 21.7917C25.765 21.5759 25.5275 21.373 25.4243 21.1884C25.4087 21.2474 25.4019 21.3133 25.4019 21.3817C25.4019 21.7571 25.5777 22.0448 25.9244 22.2484C26.3466 22.492 27.0719 22.739 28.1102 22.9893C28.176 23.005 28.2949 22.9391 28.4665 22.7925C28.6571 22.6297 28.7603 22.4668 28.7766 22.3047C28.8044 22.0353 28.6388 21.7978 28.2818 21.5881C28.2167 21.5542 28.0416 21.4821 27.7506 21.3791C27.4627 21.2759 27.2253 21.1694 27.0441 21.0628C26.8033 20.9257 26.6845 20.8253 26.681 20.7594C26.6845 20.7221 26.7183 20.691 26.7937 20.6625C27.0156 20.575 27.3095 20.522 27.6724 20.503C28.0131 20.4813 28.2228 20.4942 28.3009 20.5376C28.4135 20.6658 28.4698 20.7568 28.4665 20.8131C28.5071 20.8348 28.6076 20.7629 28.7698 20.6C28.8261 20.5437 28.8546 20.4846 28.8546 20.4223Z" fill="white"/>
<path d="M29.511 33.9447C28.8078 34.2065 28.1119 34.4654 27.4235 34.7215L27.4129 34.7255C25.9925 35.2539 24.6038 35.7706 23.2476 36.2771C23.1505 36.4805 23.0821 36.6652 23.0412 36.8342C23.2761 36.693 24.4046 36.2491 26.4274 35.4953C28.4104 34.7542 29.414 34.3729 29.4357 34.3477C29.4825 34.3132 29.5422 34.2039 29.6142 34.0262C29.6393 33.9697 29.6419 33.9352 29.6265 33.9223C29.6141 33.9134 29.5768 33.9223 29.511 33.9447Z" fill="white"/>
<path d="M20.8606 24.6168C21.158 24.4154 21.3214 24.2786 21.3506 24.2008C21.4227 24.0087 21.0465 23.7607 20.2233 23.4518C19.9622 23.3539 19.7963 23.2973 19.721 23.2821C19.5111 23.2424 19.3475 23.2699 19.2249 23.3671L18.8097 23.7016C18.7565 23.7467 18.7264 23.7772 18.7195 23.7955C18.7109 23.8184 18.7714 23.8518 18.9045 23.8939C19.1807 23.9845 19.32 24.0311 19.3219 24.0318C20.0356 24.2995 20.3775 24.4804 20.3416 24.5762C20.3373 24.5876 20.326 24.5964 20.3094 24.606C20.218 24.6397 19.9316 24.6884 19.4493 24.7503C18.9478 24.8152 18.6372 24.8629 18.5166 24.9008C18.4129 24.9326 18.356 24.9531 18.3415 24.9631C18.3389 24.9699 18.4073 24.9825 18.5472 24.9988C19.339 25.079 19.815 25.0957 19.9762 25.0549C20.2285 24.9877 20.5237 24.8404 20.8606 24.6168Z" fill="white"/>
<path d="M20.5945 28.0608C20.5881 27.6995 20.5334 27.4609 20.4347 27.3401C20.2272 27.0861 19.8411 27.144 19.2722 27.5101C19.1779 27.5771 19.1391 27.6188 19.1546 27.6378C19.1644 27.6498 19.2553 27.6526 19.4259 27.6477C19.5972 27.6423 19.7001 27.6612 19.738 27.7076C19.8143 27.801 19.8431 27.9363 19.8251 28.117C19.5514 27.9329 19.3435 27.8237 19.1954 27.7948C18.8944 27.7359 18.5774 27.8403 18.2524 28.1058C18.153 28.187 17.8313 28.5639 17.2833 29.238C16.7349 29.9131 16.2304 30.4442 15.7628 30.8262C15.4806 31.0567 15.3493 31.1852 15.3669 31.2067C15.3827 31.2138 15.4384 31.1941 15.5406 31.1476C15.8305 30.9982 16.0948 30.8282 16.3333 30.6334C17.1441 29.9711 17.8507 29.1619 18.4554 28.2089C18.6442 28.2193 18.8795 28.3115 19.1599 28.4901L19.184 28.5076L19.1849 28.5082C19.3906 28.6573 19.5968 28.8067 19.8033 28.9499C19.8329 28.9673 19.9393 28.9521 20.1239 28.8999C20.3075 28.8529 20.4139 28.8118 20.4451 28.7817C20.5519 28.6586 20.6044 28.42 20.5945 28.0608Z" fill="white"/>
<path d="M49.272 27.1621C49.5563 26.721 49.7002 26.3274 49.7002 25.98C49.7002 25.5111 49.5129 25.2797 49.1405 25.2797C48.6931 25.2797 48.4089 25.5641 48.284 26.1333C48.2651 26.2487 48.2527 26.3206 48.2434 26.3491C48.2651 26.3552 48.2805 26.3647 48.2962 26.3769C48.3153 26.3708 48.3655 26.3396 48.4463 26.2867C48.5561 26.2113 48.6777 26.174 48.8126 26.174C49.0597 26.174 49.1811 26.305 49.1811 26.571C49.1811 26.8493 48.7998 27.4031 48.0398 28.2316C47.8871 28.4006 47.8084 28.5003 47.8084 28.5253C47.8084 28.5316 47.8117 28.5376 47.8177 28.5376C47.8525 28.5376 47.959 28.4725 48.1428 28.3441C48.603 28.0191 48.981 27.6249 49.272 27.1621Z" fill="white"/>
<path d="M37.842 47.0833C37.5915 46.7079 37.3072 46.5206 36.9917 46.5206C36.9571 46.5206 36.8756 46.6266 36.7447 46.8456C36.613 47.0642 36.5506 47.1926 36.5506 47.2304C36.5506 47.3147 36.626 47.43 36.782 47.5711C36.938 47.7116 37.0636 47.7836 37.1607 47.7836C37.2448 47.7836 37.295 47.7618 37.3134 47.7245C37.3289 47.6838 37.3697 47.6647 37.4321 47.6647C37.5231 47.6647 37.673 47.9335 37.8888 48.475C38.1045 49.0159 38.2112 49.3783 38.2112 49.5663C38.2112 49.6849 38.2329 49.744 38.2796 49.744C38.3299 49.744 38.3924 49.6789 38.4643 49.5472C38.5673 49.3566 38.661 49.0281 38.7459 48.5625C38.9365 47.4959 39.1462 46.9612 39.3708 46.9612C39.474 46.9612 39.5744 47.0208 39.668 47.1429C39.7651 47.2645 39.8275 47.3269 39.856 47.3269C39.9246 47.3269 39.9844 47.2461 40.0339 47.0894C40.0745 46.9705 40.0935 46.8736 40.0935 46.7989C40.0935 46.7018 40.0372 46.5797 39.9246 46.4263C39.7936 46.2513 39.6654 46.1638 39.5337 46.1638C39.2806 46.1638 39.0458 46.4202 38.83 46.936C38.6332 47.6526 38.5083 48.1934 38.4581 48.5558C38.4485 48.5797 38.4409 48.6 38.4347 48.6164C38.4246 48.6432 38.4183 48.6598 38.4141 48.6657C38.4079 48.684 38.4018 48.684 38.3896 48.6657C38.3896 48.6596 38.3868 48.6419 38.3823 48.6133L38.3787 48.5907L38.3758 48.5719L38.3733 48.5558C38.2701 47.9491 38.0952 47.4585 37.842 47.0833Z" fill="white"/>
<path d="M49.1288 31.3992C48.9131 30.9833 48.6973 30.7769 48.4815 30.7769C48.4563 30.7769 48.3973 30.8551 48.3029 31.0111C48.2128 31.1678 48.1659 31.2614 48.1659 31.2901C48.1659 31.349 48.2222 31.4305 48.3314 31.5336C48.4442 31.6334 48.5343 31.687 48.6037 31.687C48.666 31.687 48.7006 31.6714 48.7129 31.6429C48.7258 31.6151 48.7536 31.6021 48.8005 31.6021C48.8601 31.6021 48.9817 31.8682 49.1601 32.4062C49.3352 32.9281 49.4228 33.2566 49.4228 33.397C49.4228 33.4819 49.4382 33.5254 49.4695 33.5254C49.5075 33.5254 49.551 33.4785 49.6039 33.3848C49.6792 33.2445 49.745 33.0096 49.8074 32.675C49.9981 31.6212 50.1698 31.0959 50.3205 31.0959C50.3925 31.0959 50.4644 31.1393 50.5328 31.2243C50.6015 31.3118 50.6456 31.3552 50.6673 31.3552C50.7175 31.3552 50.7581 31.2988 50.7955 31.1834C50.8233 31.0987 50.8396 31.03 50.8396 30.9772C50.8396 30.9079 50.799 30.8177 50.7175 30.7078C50.6239 30.5829 50.5295 30.5205 50.4359 30.5205C50.2512 30.5205 50.0824 30.705 49.9297 31.0742C49.7667 31.7338 49.6575 32.2652 49.5977 32.6689L49.5927 32.683C49.5888 32.6941 49.5853 32.7039 49.5824 32.7124C49.5758 32.7311 49.5716 32.7432 49.5699 32.7469C49.5631 32.7593 49.557 32.7593 49.551 32.7469C49.551 32.7464 49.5509 32.7457 49.5508 32.7449L49.5505 32.7422C49.55 32.7382 49.549 32.7324 49.5477 32.7249C49.5453 32.7114 49.542 32.6921 49.5388 32.6689C49.4599 32.1993 49.3229 31.7772 49.1288 31.3992Z" fill="white"/>
<path d="M49.8029 37.7603C49.6339 37.9258 49.4555 38.0073 49.2647 38.0073C48.8521 38.0073 48.6459 37.7792 48.6459 37.3253C48.6459 36.916 48.8367 36.4315 49.2241 35.8683C49.562 35.3681 49.8809 35.0242 50.1809 34.843C50.2407 34.8082 50.2779 34.8117 50.2935 34.8524C50.3126 34.8993 50.297 34.9522 50.2407 35.0146C50.0119 35.2243 49.7805 35.5087 49.5491 35.8683C49.2934 36.2564 49.165 36.5408 49.1617 36.7254C49.2778 36.6283 49.4148 36.5814 49.5715 36.5814C49.9217 36.5814 50.0995 36.7376 50.0995 37.0505C50.0995 37.3347 49.9997 37.573 49.8029 37.7603Z" fill="white"/>
<path d="M25.9529 48.3047C26.1904 47.9356 26.3092 47.6071 26.3092 47.3194C26.3092 46.9285 26.1531 46.7345 25.8437 46.7345C25.4684 46.7345 25.2335 46.9726 25.1304 47.4476C25.1149 47.5447 25.1026 47.6038 25.0958 47.6262C25.1149 47.6323 25.1271 47.6383 25.1399 47.6512C25.1555 47.6444 25.199 47.6199 25.2648 47.576C25.3558 47.5134 25.4589 47.4823 25.5716 47.4823C25.7745 47.4823 25.8775 47.5914 25.8775 47.8107C25.8775 48.0448 25.5587 48.5049 24.9276 49.1958C24.7959 49.3361 24.7334 49.4211 24.7334 49.4428C24.7334 49.4489 24.7334 49.4522 24.7395 49.4522C24.7681 49.4522 24.8583 49.3959 25.0117 49.2894C25.3965 49.0172 25.7094 48.6888 25.9529 48.3047Z" fill="white"/>
<path d="M34.9263 50.04C34.9386 50.014 34.9486 49.9969 34.9609 49.9903C34.9675 49.9817 34.9728 49.9833 34.9761 49.9955C34.9812 50.0055 34.9812 50.0244 34.9761 50.05C34.9504 50.2622 34.8907 50.4518 34.7965 50.6176C34.7007 50.7853 34.5984 50.8688 34.487 50.8688C34.3658 50.8725 34.2719 50.8091 34.2085 50.6792C34.1454 50.5494 34.118 50.375 34.1264 50.1561C34.1369 49.886 34.2411 49.4876 34.4378 48.9645C34.6084 48.5048 34.7556 48.1798 34.8821 47.9865C34.9386 47.9012 34.9742 47.8567 34.9931 47.8534C34.9965 47.867 34.9812 47.9183 34.9438 48.0021C34.6647 48.6228 34.4856 49.1236 34.4032 49.5047C34.3691 49.6567 34.3539 49.7955 34.3539 49.9169C34.3539 50.0878 34.3847 50.2159 34.4477 50.3015C34.4956 50.3717 34.5454 50.4006 34.5984 50.3902C34.706 50.368 34.8154 50.2519 34.9263 50.04Z" fill="white"/>
<path fill-rule="evenodd" clip-rule="evenodd" d="M38.6257 7.2723L32 0L25.3742 7.2723L16 4.28719L13.8981 13.8981L4.28719 16L7.2723 25.3742L0 32L7.2723 38.6258L4.28719 48L13.8981 50.1019L16 59.7128L25.3742 56.7277L32 64L38.6257 56.7277L48 59.7128L50.1019 50.1019L59.7128 48L56.7277 38.6258L64 32L56.7277 25.3742L59.7128 16L50.1019 13.8981L48 4.28719L38.6257 7.2723ZM18.8148 9.16252L26.5398 11.6225L32 5.62955L37.4601 11.6225L45.1852 9.16252L46.9174 17.0826L54.8374 18.8148L52.3775 26.5399L58.3704 32L52.3775 37.4601L54.8374 45.1852L46.9174 46.9174L45.1852 54.8375L37.4601 52.3775L32 58.3705L26.5398 52.3775L18.8148 54.8375L17.0826 46.9174L9.16251 45.1852L11.6225 37.4601L5.62954 32L11.6225 26.5399L9.16251 18.8148L17.0826 17.0826L18.8148 9.16252Z" fill="white"/>
</svg>
